<svg xmlns="http://www.w3.org/2000/svg" width="1024" height="1024" viewBox="0 0 1024 1024">
  <defs>
    <linearGradient id="g" x1="0" y1="0" x2="1" y2="1">
      <stop offset="0" stop-color="#6366F1"/>
      <stop offset="1" stop-color="#22C55E"/>
    </linearGradient>
  </defs>
  <rect x="128" y="128" width="768" height="768" rx="168" fill="#0B0F14"/>
  <rect x="176" y="176" width="672" height="672" rx="144" fill="url(#g)" opacity="0.16"/>
  <path d="M304 332c0-30 24-54 54-54h320c30 0 54 24 54 54v360c0 30-24 54-54 54H358c-30 0-54-24-54-54V332z" fill="#ffffff" opacity="0.92"/>
  <path d="M356 350h266c16 0 30 13 30 30v20c0 16-13 30-30 30H356c-16 0-30-13-30-30v-20c0-16 13-30 30-30z" fill="#111827" opacity="0.12"/>
  <path d="M356 458h312c16 0 30 13 30 30v18c0 16-13 30-30 30H356c-16 0-30-13-30-30v-18c0-16 13-30 30-30z" fill="#111827" opacity="0.10"/>
  <path d="M356 560h312c16 0 30 13 30 30v18c0 16-13 30-30 30H356c-16 0-30-13-30-30v-18c0-16 13-30 30-30z" fill="#111827" opacity="0.10"/>
  <path d="M356 662h220c16 0 30 13 30 30v18c0 16-13 30-30 30H356c-16 0-30-13-30-30v-18c0-16 13-30 30-30z" fill="#111827" opacity="0.10"/>
</svg>
